# xmcd
#
# Track frame offsets: 
#        150
#        35779
#        50328
#        70369
#        90938
#        101802
#        117530
#        138803
#        176196
#        196202
#        220295
#        238377
#        261222
#        281306
#        297292
#        311523
#        332724
#
# Disc length: 4656 seconds
#
# Revision: 2
# Processed by: cddbd v1.5.2PL0 Copyright (c) Steve Scherf et al.
# Submitted via: ExactAudioCopyFreeDBPlugin 1.0
#
DISCID=0a122e11
DTITLE=Robert Earl Keen - Live From Austin TX (2004)
DYEAR=2004
DGENRE=Folk/Rock
TTITLE0=Dreadful Selfish Crime
TTITLE1=Blow You Away
TTITLE2=Shades Of Gray
TTITLE3=I'm Goin' To Town
TTITLE4=That Buckin' Song
TTITLE5=I Still Miss Someone
TTITLE6=Coming Home Of The Son And Brother, The
TTITLE7=Road Goes On Forever, The
TTITLE8=Merry Christmas From The Family
TTITLE9=Snowin' On Raton
TTITLE10=Not A Drop Of Rain
TTITLE11=Wild Wind
TTITLE12=Goin' Nowhere Blues
TTITLE13=Down That Dusty Trail
TTITLE14=Feelin' Good Again
TTITLE15=Walkin' Cane
TTITLE16=Travelin' Light
EXTD=
EXTT0=
EXTT1=
EXTT2=
EXTT3=
EXTT4=
EXTT5=
EXTT6=
EXTT7=
EXTT8=
EXTT9=
EXTT10=
EXTT11=
EXTT12=
EXTT13=
EXTT14=
EXTT15=
EXTT16=
PLAYORDER=
